<svg width="1348" height="512" viewBox="0 0 1348 512" fill="none" xmlns="http://www.w3.org/2000/svg">
<rect width="1347.37" height="512" fill="black"/>
<rect width="512" height="512" transform="translate(418)" fill="black"/>
<path fill-rule="evenodd" clip-rule="evenodd" d="M567.56 251.017C581.316 258.44 597.036 262.152 614.722 262.152C622.801 262.152 630.989 261.061 639.286 258.877C642.494 257.972 645.624 256.959 648.676 255.838C648.307 259.538 648.123 263.339 648.123 267.241C648.123 284.49 651.835 299.883 659.259 313.421C666.682 326.74 676.726 337.33 689.39 345.19C702.273 352.832 716.902 356.653 733.278 356.653C742.667 356.653 751.837 354.688 760.789 350.758C769.741 346.828 777.165 341.806 783.06 335.692C786.071 332.574 788.473 329.402 790.266 326.178V346.828C790.266 358.182 788.191 367.68 784.043 375.322C779.894 382.964 773.781 388.75 765.702 392.68C757.623 396.61 747.579 398.575 735.57 398.575C729.238 398.575 722.797 397.811 716.247 396.283C709.696 394.973 703.474 393.008 697.578 390.387C691.683 387.986 686.552 385.147 682.185 381.872L669.739 408.073C677.163 414.187 686.879 419.1 698.888 422.812C711.116 426.742 723.343 428.707 735.57 428.707C749.326 428.707 761.663 426.742 772.58 422.812C783.497 419.1 792.777 413.532 800.419 406.108C808.061 398.903 813.847 389.951 817.777 379.252C821.926 368.771 824 356.653 824 342.897V181.431H790.266V204.82C788.052 202.039 785.432 199.373 782.405 196.824C778.257 193.331 773.562 190.165 768.322 187.326C763.082 184.27 757.405 181.977 751.291 180.449C745.177 178.702 738.845 177.828 732.295 177.828C716.356 177.828 701.945 181.759 689.063 189.619C679.455 195.417 671.285 203.033 664.713 212.191C657.572 221.281 650.643 223.798 644.188 226.144C643.309 226.463 642.439 226.779 641.579 227.108C634.373 229.946 626.513 231.366 617.998 231.366C605.989 231.366 595.399 228.964 586.228 224.16C577.058 219.357 569.962 212.588 564.94 203.854C561.143 197.086 558.781 189.444 557.855 180.928H689.396L689.724 166.517C689.942 154.508 688.086 143.482 684.156 133.438C680.444 123.176 674.986 114.333 667.78 106.909C660.793 99.4851 652.496 93.6989 642.889 89.5503C633.282 85.1835 622.91 83 611.775 83C599.111 83 587.32 85.2926 576.403 89.8779C565.704 94.2448 556.424 100.577 548.564 108.874C540.922 116.953 534.917 126.56 530.55 137.695C526.183 148.831 524 161.168 524 174.705C524 191.736 527.821 206.802 535.463 219.902C543.324 233.003 554.022 243.375 567.56 251.017ZM559.145 154.071C560.179 149.134 561.674 144.658 563.63 140.643C567.778 131.909 573.892 125.359 581.971 120.992C590.049 116.407 599.984 114.114 611.775 114.114C619.199 114.114 626.076 115.752 632.408 119.027C638.74 122.302 643.981 126.778 648.129 132.455C652.278 138.132 654.68 144.573 655.335 151.779V154.071H559.145ZM765.374 318.006C757.077 323.028 747.579 325.539 736.88 325.539C726.4 325.539 717.011 323.028 708.714 318.006C700.635 312.984 694.194 306.106 689.39 297.372C684.805 288.42 682.512 278.376 682.512 267.241C682.512 256.105 684.805 246.17 689.39 237.437C694.194 228.484 700.635 221.497 708.714 216.476C717.011 211.235 726.4 208.615 736.88 208.615C747.579 208.615 756.968 211.126 765.047 216.148C773.344 221.17 779.785 228.157 784.37 237.109C789.174 245.843 791.576 255.887 791.576 267.241C791.576 278.595 789.283 288.639 784.698 297.372C780.113 306.106 773.672 312.984 765.374 318.006Z" fill="white"/>
</svg>
