<?xml version="1.0" standalone="no"?>
<!DOCTYPE svg PUBLIC "-//W3C//DTD SVG 20010904//EN"
 "http://www.w3.org/TR/2001/REC-SVG-20010904/DTD/svg10.dtd">
<svg version="1.0" xmlns="http://www.w3.org/2000/svg"
 width="700.000000pt" height="700.000000pt" viewBox="0 0 700.000000 700.000000"
 preserveAspectRatio="xMidYMid meet">
<metadata>
Created by potrace 1.14, written by Peter Selinger 2001-2017
</metadata>
<g transform="translate(0.000000,700.000000) scale(0.100000,-0.100000)"
fill="#000000" stroke="none">
<path d="M2578 5865 c-2 -2 -34 -5 -73 -9 -129 -11 -263 -49 -392 -111 -131
-62 -205 -115 -308 -219 -243 -244 -359 -557 -350 -941 4 -166 7 -194 37 -310
113 -430 474 -756 923 -834 169 -30 354 -32 500 -5 56 10 181 44 217 59 16 6
17 -5 17 -132 -1 -194 18 -315 73 -471 130 -372 464 -675 814 -738 15 -3 30
-7 34 -9 14 -9 154 -19 255 -18 184 2 361 59 526 169 77 51 167 136 206 195
14 21 27 39 30 39 10 0 -1 -383 -13 -453 -26 -149 -103 -288 -203 -370 -72
-59 -207 -120 -294 -134 -18 -3 -51 -8 -74 -13 -49 -8 -290 -5 -343 5 -87 16
-211 50 -281 75 -81 30 -223 102 -246 126 -8 8 -16 14 -18 14 -3 0 -20 -36
-105 -215 -29 -60 -56 -118 -61 -127 -25 -48 282 -198 514 -252 159 -37 223
-44 387 -44 206 1 394 32 525 87 173 74 262 131 364 231 60 60 161 193 161
213 0 5 9 21 19 35 10 15 19 30 20 35 0 4 7 23 16 43 24 59 62 186 70 234 3
25 10 72 15 105 5 33 9 585 9 1228 l1 1167 -230 0 -230 0 0 -155 c0 -85 -2
-155 -5 -155 -2 0 -26 23 -52 51 -89 95 -305 223 -444 263 -265 77 -578 47
-814 -79 -161 -86 -285 -190 -386 -325 -46 -61 -111 -120 -171 -156 -33 -18
-62 -34 -66 -34 -4 0 -41 -13 -83 -30 -41 -16 -87 -31 -102 -34 -15 -2 -30 -7
-35 -10 -10 -6 -144 -20 -192 -19 -357 1 -636 161 -760 436 -26 59 -57 166
-64 225 l-4 28 895 -1 c505 0 897 4 900 9 8 12 7 332 0 376 -15 88 -38 182
-57 236 -115 324 -341 550 -661 662 -80 28 -113 36 -199 48 -38 6 -208 12
-212 9z m207 -439 c50 -11 68 -17 125 -44 190 -88 324 -274 334 -462 l1 -25
-658 -1 c-591 0 -657 1 -653 15 3 9 10 35 16 58 14 56 57 146 97 204 82 118
238 215 400 249 88 18 268 21 338 6z m1779 -1305 c207 -54 382 -211 474 -426
27 -63 33 -83 48 -150 12 -51 15 -77 18 -177 7 -241 -63 -442 -208 -592 -148
-154 -307 -222 -527 -224 -297 -3 -535 142 -668 405 -93 186 -111 474 -40 672
11 31 21 61 22 66 8 27 60 117 93 161 180 240 486 343 788 265z"/>
</g>
</svg>
